<?xml version="1.0" encoding="iso-8859-1"?>
<!-- Generator: Adobe Illustrator 19.0.0, SVG Export Plug-In . SVG Version: 6.00 Build 0)  -->
<svg version="1.1" id="Capa_1" xmlns="http://www.w3.org/2000/svg" xmlns:xlink="http://www.w3.org/1999/xlink" x="0px" y="0px"
	 viewBox="0 0 511.998 511.998" style="enable-background:new 0 0 511.998 511.998;" xml:space="preserve">
<g>
	<g>
		<path d="M460.967,303.399h-21.764c-13.628,0-26.933-2.623-39.543-7.796l-15.01-6.159c-0.016-0.007-0.032-0.013-0.048-0.02
			l-102.38-42.006c-22.037-9.041-38.34-28.313-43.61-51.538l-18.381-81.706c0.084-0.642,0.093-1.304,0.003-1.976l-0.929-6.877
			c-1.39-10.293-8.008-18.663-17.703-22.385c-9.69-3.719-20.204-1.934-28.123,4.781c-0.133,0.113-0.263,0.231-0.388,0.354
			l-36.798,35.921l-43.204,16.822c-3.861,1.503-5.772,5.851-4.269,9.711c1.502,3.861,5.851,5.772,9.711,4.269l52.152-20.307
			c7.766-3.024,15.688-5.462,23.729-7.315l6.116,27.22l-9.084,2.461c-3.999,1.083-6.362,5.203-5.278,9.201
			c1.06,3.913,5.28,6.343,9.201,5.278l8.452-2.29l5.598,24.915l-10.235,2.773c-3.999,1.083-6.362,5.203-5.278,9.201
			c1.06,3.913,5.28,6.343,9.201,5.278l9.604-2.602l1.655,7.366c1.759,7.756,4.543,15.143,8.207,22.005l-9.21,4.915
			c-3.655,1.95-5.037,6.494-3.086,10.149c1.909,3.578,6.572,4.995,10.149,3.086l10.35-5.523c6.147,7.903,13.62,14.754,22.136,20.201
			l-6.895,7.101c-2.885,2.972-2.815,7.721,0.156,10.607c2.907,2.823,7.775,2.76,10.607-0.156l10.021-10.32
			c0.018,0.007,0.035,0.015,0.052,0.022l28.081,12.1l-4.359,6.825c-2.229,3.491-1.207,8.129,2.284,10.358
			c0.041,0.026,0.084,0.043,0.125,0.068c-30.6,2.698-59.336,15.348-82.26,36.462l-0.166,0.153l-20.56-7.618
			c-3.886-1.438-8.201,0.543-9.64,4.428c-1.439,3.885,0.543,8.201,4.428,9.64l93.284,34.565c0.834,0.309,1.716,0.467,2.606,0.467
			h188.401c10.509,0,20.122-6.18,24.485-15.744c1.932-4.235,6.186-6.97,10.837-6.97h12.306l-0.021,18.667
			c-0.083,19.029-15.622,34.51-34.642,34.51h-0.882v-8.336c0-9.653-15.002-9.669-15.002,0v8.336h-45.213v-8.336
			c0-9.653-15.002-9.669-15.002,0v8.336h-42.252v-8.336c0-9.653-15.002-9.669-15.002,0v8.336h-38.303v-8.336
			c0-9.653-15.002-9.669-15.002,0v8.336h-13.905l-80.632-24.145c-3.394-1.019-7.041,0.482-8.737,3.595l-11.205,20.55h-31.421v-8.336
			c0-9.653-15.002-9.669-15.002,0v8.336H76.179v-8.336c0-9.653-15.002-9.669-15.002,0v8.33
			c-20.172-0.135-36.541-16.589-36.541-36.803v-28.217h36.638h71.125c9.653,0,9.669-15.002,0-15.002H65.467l-6.616-10.755
			c-5.14-8.356-5.039-19.092,0.259-27.349l13.639-21.26c11.858-18.486,6.683-43.497-11.538-55.754l-16.534-11.123v-22.932
			c0-0.002,0-0.004,0-0.006v-5.623c0-3.144,1.853-5.968,4.729-7.22l22.229-8.655c3.861-1.503,5.772-5.851,4.269-9.711
			c-1.502-3.86-5.85-5.772-9.711-4.269l-22.343,8.7c-0.066,0.025-0.131,0.052-0.196,0.08c-5.693,2.403-10.024,6.92-12.268,12.411
			c-3.085-1.192-6.401-1.711-9.735-1.429c-7.901,0.67-14.792,5.771-18.906,13.993c-4.145,8.281-2.689,16.31-1.454,20.36
			c2.088,6.84,5.983,10.362,9.418,13.47c1.656,1.499,3.221,2.914,4.701,4.788c3.533,4.477,5.586,10.506,6.146,17.92l-1.571,3.421
			c-4.694,10.22-7.175,21.567-7.175,32.815v59.508c-1.918,1.359-3.173,3.591-3.173,6.12v35.718
			c0,28.569,23.233,51.811,51.792,51.811h103.934c2.745,0,5.272-1.5,6.586-3.911l10.424-19.121l75.859,22.715
			c0.698,0.209,1.423,0.315,2.151,0.315h201.661c23.474,0,43.236-16.459,48.347-38.458c1.004-1.276,1.608-2.881,1.608-4.632v-33.43
			C511.998,326.301,489.105,303.399,460.967,303.399z M345.613,289.643l31.415,12.89c0.985,1.713,0.468,3.382,0.15,4.101
			c-0.378,0.856-1.553,2.827-4.37,2.754l-83.148-2.461c-2.729-0.082-5.449-0.075-8.158-0.001c0.655-0.51,1.242-1.126,1.714-1.865
			l5.674-8.885l12.496,5.385c0.038,0.017,0.076,0.032,0.114,0.048c4.724,1.944,9.611,2.871,14.417,2.87
			C327.467,304.478,338.521,299.111,345.613,289.643z M303.973,272.559l26.909,11.041c-6.222,5.612-15.466,7.487-23.618,4.158
			l-10.191-4.392L303.973,272.559z M168.98,113.046l14.38-14.037c3.651-2.99,8.442-3.766,12.863-2.067
			c4.498,1.727,7.568,5.61,8.213,10.388l0.091,0.673C192.498,108.532,180.62,110.222,168.98,113.046z M189.176,124.449
			c5.836-0.811,11.722-1.322,17.646-1.527l5.162,22.946l-16.963,4.596L189.176,124.449z M198.312,165.115l16.966-4.598l5.605,24.914
			l-16.973,4.599L198.312,165.115z M215.804,230.919c-3.039-5.692-5.348-11.818-6.807-18.249l-1.795-7.989l16.992-4.604
			c1.835,7.718,4.681,15.065,8.406,21.879L215.804,230.919z M243.627,259.771c-7.412-4.309-13.961-9.857-19.388-16.348l16.688-8.904
			c4.053,5.105,8.67,9.752,13.764,13.858L243.627,259.771z M257.982,266.522l9.358-9.637c2.957,1.636,6.021,3.114,9.186,4.413
			l13.342,5.474l-6.756,10.578L257.982,266.522z M484.399,347.794c-10.509-0.001-20.12,6.179-24.484,15.743
			c-1.932,4.235-6.186,6.97-10.838,6.97H262.02l-55.427-20.537c23.283-19.024,52.326-28.944,82.625-28.047l83.148,2.461
			c9.425,0.28,17.87-6.421,19.802-15.639l1.798,0.738c14.426,5.918,29.646,8.919,45.236,8.919h21.764
			c17.592,0,32.272,12.685,35.403,29.391H484.399z M33.616,251.262l1.195-2.602c0.955-1.082,1.599-2.437,1.804-3.93l0.887-1.931
			c2.398-5.224,4.204-10.643,5.403-16.206l9.932,6.681c11.505,7.738,14.772,23.531,7.284,35.205l-13.638,21.259
			c-8.389,13.077-8.55,30.076-0.41,43.31l1.781,2.895H27.81v-58.128C27.81,268.714,29.817,259.531,33.616,251.262z M20.77,207.745
			c-2.95-2.669-4.291-3.966-5.133-6.724c-0.469-1.536-1.356-5.515,0.521-9.267c1.012-2.021,3.235-5.459,6.759-5.758
			c2.467-0.206,4.979,1.033,6.757,3.221v20.767c0,2.418-0.152,4.841-0.431,7.251c-0.646-0.991-1.332-1.948-2.06-2.871
			C24.925,211.503,22.621,209.419,20.77,207.745z"/>
	</g>
</g>
<g>
</g>
<g>
</g>
<g>
</g>
<g>
</g>
<g>
</g>
<g>
</g>
<g>
</g>
<g>
</g>
<g>
</g>
<g>
</g>
<g>
</g>
<g>
</g>
<g>
</g>
<g>
</g>
<g>
</g>
</svg>
