<svg id="Capa_1" enable-background="new 0 0 512 512" height="512" viewBox="0 0 512 512" width="512" xmlns="http://www.w3.org/2000/svg"><g><path d="m443.146 402.805c-11.998-19.577-22.014-41.121-31.05-61.487-1.693-3.816-6.159-5.535-9.972-3.843-3.815 1.693-5.536 6.158-3.843 9.973 9.247 20.841 19.521 42.929 31.981 63.26.257.418.451.763.598 1.042-11.139 8.622-26.489 13.013-46.735 13.414l-58.389-181.113c23.546 5.233 39.421 30.098 57.511 69.618 1.27 2.776 4.011 4.414 6.876 4.414 1.052 0 2.122-.221 3.141-.688 3.795-1.737 5.463-6.222 3.726-10.017-17.364-37.933-37.39-74.966-74.017-79.103 1.274-12.18 5.626-24.767 11.821-33.621.051-.073.102-.145.152-.217.004-.005.007-.009.01-.014 42.711-60.372 32.633-93.476 22.824-107.836-2.622-3.839-5.823-7.218-9.469-10.11l-21.39-71.094c-1.202-3.996-5.417-6.264-9.414-5.059-3.997 1.202-6.262 5.417-5.059 9.414l17.242 57.312c-10.587-3.048-22.542-3.318-34.482-.353-17.396 4.322-31.157 14.495-39.209 28.227-8.053-13.732-21.814-23.905-39.21-28.227-11.937-2.966-23.893-2.696-34.481.353l17.242-57.313c1.203-3.997-1.063-8.211-5.059-9.414-3.997-1.204-8.212 1.062-9.414 5.059l-21.389 71.095c-3.646 2.891-6.847 6.27-9.469 10.108-9.809 14.361-19.887 47.468 22.833 107.851 6.276 8.864 10.685 21.559 11.969 33.841-36.589 4.15-56.65 41.17-74.013 79.099-1.737 3.795-.069 8.28 3.726 10.017 1.02.467 2.089.688 3.141.688 2.865 0 5.605-1.638 6.876-4.414 18.095-39.528 33.952-64.392 57.512-69.629-6.49 20.13-12.987 40.257-19.489 60.382-12.781 39.565-25.977 80.415-38.902 120.743-20.291-.401-35.611-4.797-46.733-13.414.147-.28.342-.627.6-1.048 12.461-20.335 22.734-42.419 31.978-63.255 1.692-3.815-.028-8.28-3.843-9.973-3.815-1.691-8.28.028-9.973 3.843-9.034 20.361-19.047 41.902-31.046 61.482-5.083 8.279-4.163 15.233 2.755 20.687 13.11 10.26 30.297 15.732 52.329 16.667-.564 4.8-.188 9.895 2.35 14.716 3.542 6.727 10.381 11.421 21.527 14.773l33.626 10.105c-.239 8.155 3.445 14.327 16.034 18.805 23.904 8.494 41.122 13.417 58.409 13.448h.242c17.272-.032 34.491-4.955 58.397-13.449 12.588-4.477 16.271-10.648 16.031-18.804l33.631-10.107c11.138-3.355 17.975-8.052 21.516-14.782 2.537-4.821 2.915-9.911 2.353-14.706 22.03-.936 39.225-6.409 52.353-16.683 6.897-5.435 7.817-12.389 2.738-20.663zm-276.446-307.694c8.831-12.93 27.498-18.454 46.445-13.746 20.012 4.971 33.225 19.166 35.345 37.971.423 3.767 3.72 6.708 7.506 6.709 3.789.001 7.089-2.939 7.513-6.709 2.12-18.804 15.332-32.999 35.344-37.971 18.946-4.708 37.613.817 46.445 13.746 12.926 18.923 4.655 51.943-22.688 90.591-9.259 13.076-13.565 29.235-14.769 42.194h-12.169c-4.816-11.544-20.468-19.789-39.559-19.789-19.09 0-34.743 8.245-39.559 19.789h-12.398c-1.202-12.929-5.489-29.042-14.703-42.101-.022-.031-.044-.062-.065-.093 0 0-.001-.001.001.002-27.345-38.65-35.615-71.669-22.689-90.593zm115.4 140.343c0 4.999-10.124 12.261-25.987 12.261s-25.987-7.261-25.987-12.261c0-4.988 10.123-12.232 25.987-12.232s25.987 7.244 25.987 12.232zm90.227 212.366c-1.487 2.826-5.692 5.298-12.495 7.346l-31.939 9.598-30.59-141.936c-.881-4.081-4.903-6.676-8.98-5.795-4.08.879-6.674 4.9-5.796 8.98 0 0 32.941 155.078 32.874 155.209-.006.012-.671 1.213-5.939 3.087-22.359 7.943-38.258 12.548-53.349 12.576h-.215c-15.105-.027-31.004-4.632-53.359-12.575-5.272-1.876-5.936-3.076-5.942-3.088-.067-.131-.355-1.002.56-5.273 0 0 32.286-149.938 32.286-149.938.879-4.081-1.717-8.1-5.797-8.979-4.08-.874-8.1 1.717-8.979 5.797l-30.562 141.934-31.937-9.597c-6.811-2.048-11.018-4.518-12.504-7.34-1.347-2.56-1.058-6.62.909-12.774 13.457-42.015 27.247-84.704 40.584-125.986 7.112-22.016 14.223-44.033 21.321-66.056h14.073c4.812 11.561 20.468 19.818 39.562 19.818s34.75-8.257 39.562-19.818h13.844l61.81 191.724c.031.11.065.226.105.349 1.957 6.13 2.24 10.177.893 12.737z"/><path d="m255.999 161.351c4.174 0 7.557-3.398 7.557-7.571 0-4.174-3.383-7.557-7.557-7.557s-7.557 3.383-7.557 7.557v.028c0 4.173 3.383 7.543 7.557 7.543z"/><path d="m255.999 191.607c4.174 0 7.557-3.398 7.557-7.571 0-4.174-3.383-7.557-7.557-7.557s-7.557 3.383-7.557 7.557v.029c0 4.173 3.383 7.542 7.557 7.542z"/></g></svg>