<svg id="Layer_1" height="512" viewBox="0 0 512 512" width="512" xmlns="http://www.w3.org/2000/svg" data-name="Layer 1"><path d="m150.517 326.385a6 6 0 0 0 4.328 7.3l36.53 9.33a6 6 0 0 0 2.97-11.627l-36.53-9.33a6 6 0 0 0 -7.298 4.327z"/><path d="m355.225 322.057-36.53 9.33a6 6 0 1 0 2.97 11.627l36.53-9.33a6 6 0 0 0 -2.97-11.627z"/><path d="m442.375 222.4-39.8-175.191v-.014a6 6 0 0 0 -3.728-4.283l-82.8-31.31a5.988 5.988 0 0 0 -4.083-.05l-.039-.152a227.3 227.3 0 0 1 -110.333.354 6 6 0 0 0 -4.7-.11l-82.692 31.264a6 6 0 0 0 -3.726 4.273v.015.011l-40.734 177.813-64.16 188.587a6 6 0 0 0 3.32 7.452l65 27.741a6 6 0 0 0 7.957-3.368l36.886-96.132-17.75 121.383a6 6 0 0 0 4.43 6.675l86.96 22.571a27.1 27.1 0 0 0 6.806.872 26.732 26.732 0 0 0 21.48-10.822l35.851-48.054 35.831 48.025a26.748 26.748 0 0 0 21.474 10.817 27.078 27.078 0 0 0 6.877-.892l85.89-22.52a6 6 0 0 0 4.419-6.645l-17.411-123.049 36.533 97.72a6 6 0 0 0 7.975 3.417l64.99-27.739a6 6 0 0 0 3.334-7.425zm-125.419-190.809 21.044 28.946-19.6 21.132a6 6 0 0 0 -.232 7.9l19.4 23.556-65.65 127.026zm-60.951-1.215a239.244 239.244 0 0 0 50.081-5.3l-4.544 21.039a224.684 224.684 0 0 1 -89.993.22l-4.549-21.049a238.971 238.971 0 0 0 49.005 5.09zm-14.877 209.773-65.651-127.028 19.4-23.556a6 6 0 0 0 -.232-7.9l-19.6-21.132 21.044-28.951zm9.392 189.751-39.473 52.908a14.8 14.8 0 0 1 -15.65 5.5l-81.752-21.218 30.072-205.645a86.036 86.036 0 0 0 .355-22.168l-7.789-68.424a6 6 0 0 0 -11.923 1.358l7.788 68.423a73.982 73.982 0 0 1 -.305 19.073l-5.243 35.893-.087-.033-53.634 139.75-54.147-23.111 62.468-183.613a6.155 6.155 0 0 0 .169-.593l32.96-143.914 6.753 59.33a6 6 0 0 0 11.923-1.357l-10.195-89.578 59.647-22.552-20.02 27.543a6 6 0 0 0 .454 7.609l19.392 20.9-18.583 22.564a6 6 0 0 0 -.7 6.57l87.52 169.344zm-36.22-370.832a237.261 237.261 0 0 0 41.718 3.732 237.149 237.149 0 0 0 42.768-3.921l-42.266 195.7zm184.081 408.032-80.726 21.166a14.8 14.8 0 0 1 -15.686-5.5l-39.449-52.866v-145.441l87.52-169.344a6 6 0 0 0 -.7-6.57l-18.583-22.561 19.392-20.9a6 6 0 0 0 .454-7.609l-20.024-27.551 59.651 22.557-21.282 187a86.442 86.442 0 0 0 .3 21.772zm40.79-31.805-52.611-140.726-.452.169-4.977-35.168a74.388 74.388 0 0 1 -.259-18.741l17.818-156.556 32.049 141.076a5.814 5.814 0 0 0 .162.577l62.391 186.274z"/><path d="m98.848 222.151a6 6 0 0 0 -7.187 4.511c-1.265 5.53-2.832 11.087-4.658 16.516l-15.69 46.66a6 6 0 1 0 11.374 3.824l15.69-46.662c1.952-5.8 3.628-11.747 4.982-17.664a6 6 0 0 0 -4.511-7.185z"/><path d="m104.722 196.512a6 6 0 0 0 -7.19 4.506l-1.76 7.67a6 6 0 1 0 11.7 2.684l1.76-7.67a6 6 0 0 0 -4.51-7.19z"/></svg>